<?xml version="1.0" standalone="no"?><!DOCTYPE svg PUBLIC "-//W3C//DTD SVG 1.1//EN" "http://www.w3.org/Graphics/SVG/1.1/DTD/svg11.dtd"><svg t="1704906891656" class="icon" viewBox="0 0 1024 1024" version="1.1" xmlns="http://www.w3.org/2000/svg" p-id="4233" xmlns:xlink="http://www.w3.org/1999/xlink" width="200" height="200"><path d="M512 955.733333c-121.890133 0-227.584-43.8784-314.146133-130.440533C111.872 739.2768 68.266667 633.890133 68.266667 512c0-121.856 43.588267-227.549867 129.536-314.112C284.450133 111.854933 390.144 68.266667 512 68.266667c121.890133 0 227.2768 43.605333 313.2928 129.5872C911.854933 284.416 955.733333 390.109867 955.733333 512c0 29.9008-2.679467 59.374933-7.9872 87.637333a17.066667 17.066667 0 0 1-33.536-6.2976C919.108267 567.1424 921.6 539.784533 921.6 512c0-112.503467-40.516267-210.090667-120.439467-290.013867C721.783467 142.626133 624.503467 102.4 512 102.4c-112.520533 0-210.1248 40.2432-290.065067 119.620267C142.6432 301.8752 102.4 399.479467 102.4 512c0 112.503467 40.226133 209.783467 119.586133 289.160533C301.909333 881.083733 399.496533 921.6 512 921.6c58.760533 0 113.578667-11.008 162.952533-32.682667a17.015467 17.015467 0 0 1 22.4768 8.7552 17.015467 17.015467 0 0 1-8.7552 22.4768C634.965333 943.7696 575.522133 955.733333 512 955.733333z" p-id="4234"></path><path d="M938.666667 972.8H768a34.133333 34.133333 0 0 1-20.497067-61.405867l128.904534-96.904533c2.286933-2.116267 4.829867-4.266667 7.645866-6.365867 1.058133-0.887467 2.9696-2.594133 4.881067-4.522666 10.769067-10.427733 15.598933-21.623467 15.598933-35.601067 0-14.216533-4.949333-25.8048-15.598933-36.4544-10.069333-10.069333-21.367467-14.7456-35.601067-14.7456-14.472533 0-26.1632 4.8128-36.846933 15.1552C806.946133 741.8368 802.133333 753.527467 802.133333 768a34.133333 34.133333 0 0 1-68.266666 0c0-32.392533 11.5712-60.7744 34.3552-84.309333C792.558933 660.104533 820.9408 648.533333 853.333333 648.533333c32.6144 0 60.8256 11.707733 83.882667 34.7648C960.8192 706.901333 972.8 735.402667 972.8 768c0 32.3584-12.4416 61.508267-35.9936 84.2752a135.5776 135.5776 0 0 1-10.922667 9.7792 35.2256 35.2256 0 0 0-3.191466 2.6112 35.703467 35.703467 0 0 1-3.6352 3.157333L870.229333 904.533333H938.666667a34.133333 34.133333 0 0 1 0 68.266667z" p-id="4235"></path></svg>